<svg width="20" height="20" viewBox="0 0 20 20" fill="none" xmlns="http://www.w3.org/2000/svg">
<path d="M10 0C8.02219 0 6.08879 0.58649 4.4443 1.6853C2.79981 2.78412 1.51809 4.3459 0.761209 6.17317C0.00433284 8.00043 -0.193701 10.0111 0.192152 11.9509C0.578004 13.8907 1.53041 15.6725 2.92894 17.0711C4.32746 18.4696 6.10929 19.422 8.0491 19.8079C9.98891 20.1937 11.9996 19.9957 13.8268 19.2388C15.6541 18.4819 17.2159 17.2002 18.3147 15.5557C19.4135 13.9112 20 11.9778 20 10C20 8.68678 19.7413 7.38642 19.2388 6.17317C18.7363 4.95991 17.9997 3.85752 17.0711 2.92893C16.1425 2.00035 15.0401 1.26375 13.8268 0.761205C12.6136 0.258658 11.3132 0 10 0ZM13.21 11.79C13.3037 11.883 13.3781 11.9936 13.4289 12.1154C13.4797 12.2373 13.5058 12.368 13.5058 12.5C13.5058 12.632 13.4797 12.7627 13.4289 12.8846C13.3781 13.0064 13.3037 13.117 13.21 13.21C13.117 13.3037 13.0064 13.3781 12.8846 13.4289C12.7627 13.4797 12.632 13.5058 12.5 13.5058C12.368 13.5058 12.2373 13.4797 12.1154 13.4289C11.9936 13.3781 11.883 13.3037 11.79 13.21L10 11.41L8.21 13.21C8.11704 13.3037 8.00644 13.3781 7.88458 13.4289C7.76272 13.4797 7.63202 13.5058 7.5 13.5058C7.36799 13.5058 7.23729 13.4797 7.11543 13.4289C6.99357 13.3781 6.88297 13.3037 6.79 13.21C6.69628 13.117 6.62188 13.0064 6.57111 12.8846C6.52034 12.7627 6.49421 12.632 6.49421 12.5C6.49421 12.368 6.52034 12.2373 6.57111 12.1154C6.62188 11.9936 6.69628 11.883 6.79 11.79L8.59 10L6.79 8.21C6.6017 8.0217 6.49591 7.7663 6.49591 7.5C6.49591 7.2337 6.6017 6.9783 6.79 6.79C6.97831 6.6017 7.2337 6.49591 7.5 6.49591C7.76631 6.49591 8.0217 6.6017 8.21 6.79L10 8.59L11.79 6.79C11.9783 6.6017 12.2337 6.49591 12.5 6.49591C12.7663 6.49591 13.0217 6.6017 13.21 6.79C13.3983 6.9783 13.5041 7.2337 13.5041 7.5C13.5041 7.7663 13.3983 8.0217 13.21 8.21L11.41 10L13.21 11.79Z" fill="#FF5555"/>
</svg>
